<svg height="200px" width="200px" version="1.1" id="Layer_1" xmlns="http://www.w3.org/2000/svg" xmlns:xlink="http://www.w3.org/1999/xlink" viewBox="0 0 512 512" xml:space="preserve" fill="#000000"><g id="SVGRepo_bgCarrier" stroke-width="0"></g><g id="SVGRepo_tracerCarrier" stroke-linecap="round" stroke-linejoin="round"></g><g id="SVGRepo_iconCarrier"> <path style="fill:#A78966;" d="M488.727,341.333h-23.273h-23.273h-15.515h-7.758H186.182h-23.273h-23.273H93.091V23.273 C93.091,10.42,82.671,0,69.818,0H23.273C10.42,0,0,10.42,0,23.273s10.42,23.273,23.273,23.273h23.273v318.061 c0,12.853,10.42,23.273,23.273,23.273h17.121h27.539h48.431h48.431h27.539h111.818h27.539h48.431h15.515h32.915h13.63 c4.425,0,8.546-1.257,12.066-3.401c6.712-4.084,11.207-11.442,11.207-19.872C512,351.753,501.58,341.333,488.727,341.333z"></path>  <g> <path style="fill:#FFFFFF;" d="M124.121,426.667c0,21.388,17.4,38.788,38.788,38.788s38.788-17.4,38.788-38.788 s-17.4-38.788-38.788-38.788S124.121,405.279,124.121,426.667z"></path> <path style="fill:#FFFFFF;" d="M387.879,426.667c0,21.388,17.4,38.788,38.788,38.788s38.788-17.4,38.788-38.788 s-17.4-38.788-38.788-38.788S387.879,405.279,387.879,426.667z"></path> </g> <g> <path style="fill:#57565C;" d="M162.909,387.879c21.388,0,38.788,17.4,38.788,38.788s-17.4,38.788-38.788,38.788 s-38.788-17.4-38.788-38.788S141.521,387.879,162.909,387.879h-48.431H86.939c-5.97,11.647-9.363,24.824-9.363,38.788 c0,47.053,38.281,85.333,85.333,85.333s85.333-38.281,85.333-85.333c0-13.964-3.392-27.141-9.363-38.788H211.34H162.909z"></path> <path style="fill:#57565C;" d="M475.097,387.879h-32.915h-15.515c21.388,0,38.788,17.4,38.788,38.788s-17.4,38.788-38.788,38.788 s-38.788-17.4-38.788-38.788s17.4-38.788,38.788-38.788h-48.431h-27.539c-5.972,11.647-9.363,24.824-9.363,38.788 c0,47.053,38.281,85.333,85.333,85.333S512,473.719,512,426.667c0-15.341-4.09-29.735-11.207-42.189 c-3.52,2.144-7.641,3.401-12.066,3.401H475.097z"></path> </g>  </g></svg>