<svg version="1.1" id="Layer_1" xmlns="http://www.w3.org/2000/svg" xmlns:xlink="http://www.w3.org/1999/xlink" viewBox="0 0 480.034 480.034" xml:space="preserve" fill="#000000"><g id="SVGRepo_bgCarrier" stroke-width="0"></g><g id="SVGRepo_tracerCarrier" stroke-linecap="round" stroke-linejoin="round"></g><g id="SVGRepo_iconCarrier"> <path style="fill:#E65039;" d="M392.017,160.034c0-83.944-68.056-152-152-152s-152,68.056-152,152H392.017z"></path> <path style="fill:#EB7361;" d="M240.017,24.034c78.544,0,143.144,59.576,151.144,136h0.856c0-83.944-68.056-152-152-152 s-152,68.056-152,152h0.856C96.873,83.61,161.473,24.034,240.017,24.034z"></path> <path style="fill:#FCB641;" d="M240.017,7.81c-51.92,26.72-88,84.744-88,152.224h176C328.017,92.554,291.937,34.53,240.017,7.81z"></path> <path style="fill:#FDC567;" d="M240.017,31.81c45.648,23.488,79.024,71.192,86.432,128.224h1.568c0-67.48-36.08-125.504-88-152.224 c-51.92,26.72-88,84.744-88,152.224h1.568C160.993,103.002,194.369,55.298,240.017,31.81z"></path> <circle style="fill:#FFFFFF;" cx="240.017" cy="88.034" r="24"></circle> <rect x="112.017" y="280.034" style="fill:#FCB641;" width="256" height="192"></rect> <g> <rect x="216.017" y="280.034" style="fill:#BD8931;" width="48" height="112"></rect> <rect x="216.017" y="424.034" style="fill:#BD8931;" width="48" height="48"></rect> </g> <path style="fill:#E65039;" d="M320.017,344.034h-24v-16c0-8.84,7.16-16,16-16h24v16 C336.017,336.874,328.857,344.034,320.017,344.034z"></path> <g> <path style="fill:#132C47;" d="M241.177,0.09c-0.784-0.12-1.528-0.12-2.312,0C151.169,0.722,80.017,72.202,80.017,160.034 c0,4.416,3.576,8,8,8h21.512l102.256,70.304l-77.568,17.904c-3.632,0.832-6.2,4.064-6.2,7.792v8h-16c-4.424,0-8,3.584-8,8v192 c0,4.416,3.576,8,8,8h104h48h104c4.424,0,8-3.584,8-8v-192c0-4.416-3.576-8-8-8h-16v-8c0-3.728-2.568-6.96-6.2-7.8l-78.688-18.16 l95.512-70.04h29.376c4.424,0,8-3.584,8-8C400.017,72.202,328.865,0.722,241.177,0.09z M240.017,376.034c-4.424,0-8,3.584-8,8h-8 v-96h32v96h-8C248.017,379.618,244.441,376.034,240.017,376.034z M256.017,272.034h-32v-8c0-4.408,3.584-8,8-8c0,4.416,3.576,8,8,8 c4.424,0,8-3.584,8-8c4.416,0,8,3.592,8,8V272.034z M160.193,152.034c2.624-57.368,33.248-109.384,79.824-135.16 c46.576,25.768,77.2,77.784,79.824,135.16H160.193z M207.545,19.874c-37.464,31.296-61.056,79.768-63.264,132.16H96.233 C99.793,87.37,146.265,34.082,207.545,19.874z M152.017,168.034h80v64.792l-94.24-64.792H152.017z M144.017,270.394l65.728-15.168 c-1.088,2.736-1.728,5.696-1.728,8.808v8h-64V270.394z M120.017,288.034h88v104c0,4.416,3.576,8,8,8h16v16h-16 c-4.424,0-8,3.584-8,8v40h-88V288.034z M224.017,464.034v-32h8c0,4.416,3.576,8,8,8c4.424,0,8-3.584,8-8h8v32H224.017z M360.017,464.034h-88v-40c0-4.416-3.576-8-8-8h-16v-16h16c4.424,0,8-3.584,8-8v-104h88V464.034z M336.017,272.034h-64v-8 c0-3.112-0.64-6.072-1.72-8.8l65.72,15.16V272.034z M248.017,232.242v-64.208h80h7.56L248.017,232.242z M335.753,152.034 c-2.2-52.392-25.792-100.864-63.264-132.16c61.28,14.2,107.752,67.496,111.312,132.16H335.753z"></path> <path style="fill:#132C47;" d="M240.017,56.034c-17.648,0-32,14.352-32,32s14.352,32,32,32s32-14.352,32-32 S257.665,56.034,240.017,56.034z M240.017,104.034c-8.824,0-16-7.176-16-16s7.176-16,16-16s16,7.176,16,16 S248.841,104.034,240.017,104.034z"></path> <path style="fill:#132C47;" d="M144.017,320.034h24c4.424,0,8-3.584,8-8s-3.576-8-8-8h-24c-4.424,0-8,3.584-8,8 S139.593,320.034,144.017,320.034z"></path> <path style="fill:#132C47;" d="M184.017,336.034h-40c-4.424,0-8,3.584-8,8s3.576,8,8,8h40c4.424,0,8-3.584,8-8 S188.441,336.034,184.017,336.034z"></path> <path style="fill:#132C47;" d="M336.017,400.034h-24c-4.424,0-8,3.584-8,8s3.576,8,8,8h24c4.424,0,8-3.584,8-8 S340.441,400.034,336.017,400.034z"></path> <path style="fill:#132C47;" d="M336.017,432.034h-40c-4.424,0-8,3.584-8,8s3.576,8,8,8h40c4.424,0,8-3.584,8-8 S340.441,432.034,336.017,432.034z"></path> <path style="fill:#132C47;" d="M336.017,304.034h-24c-13.232,0-24,10.768-24,24v16c0,4.416,3.576,8,8,8h24 c13.232,0,24-10.768,24-24v-16C344.017,307.618,340.441,304.034,336.017,304.034z M328.017,328.034c0,4.408-3.584,8-8,8h-16v-8 c0-4.408,3.584-8,8-8h16V328.034z"></path> </g> </g></svg>